# xmcd
#
# Track frame offsets:
#	150
#	15930
#	37580
#	55785
#	74387
#	88768
#	105569
#	122067
#	138904
#	152017
#	170026
#	188272
#	203443
#	220710
#	236533
#	247005
#	265819
#	280794
#	306590
#
# Disc length: 4472 seconds
#
# Revision: 0
# Processed by: cddbd v1.5.1PL0 Copyright (c) Steve Scherf et al.
# Submitted via: dBpowerAMP V4.0
#
DISCID=f8117613
DTITLE=El poder del norte - El autentiko y unico en vivo
DYEAR=1900
DGENRE=Country
TTITLE0=Pequeña amante
TTITLE1=Intro
TTITLE2=A ella
TTITLE3=Maldito orgullo
TTITLE4=Sigo enamorado
TTITLE5=En tu sonrisa
TTITLE6=Ni que valieras tanto
TTITLE7=Porque tuvo que ser
TTITLE8=De que sirvio
TTITLE9=No sera facil
TTITLE10=La radio
TTITLE11=Ganas de ti
TTITLE12=Oye como late mi corazon
TTITLE13=Piel de angel
TTITLE14=Pero me perdonas
TTITLE15=Para que me engaño
TTITLE16=Me llenaste de amor
TTITLE17=No me olvides
TTITLE18=DATA
EXTD=uno de los mejores albums del poder del norte
EXTT0=
EXTT1=
EXTT2=
EXTT3=
EXTT4=
EXTT5=
EXTT6=
EXTT7=
EXTT8=
EXTT9=
EXTT10=
EXTT11=
EXTT12=
EXTT13=
EXTT14=
EXTT15=
EXTT16=
EXTT17=
EXTT18=
PLAYORDER=
